<svg width="24" height="24" viewBox="0 0 24 24" fill="none" xmlns="http://www.w3.org/2000/svg">
<path fill-rule="evenodd" clip-rule="evenodd" d="M12 5.25C8.27208 5.25 5.25 8.27208 5.25 12C5.25 15.7279 8.27208 18.75 12 18.75C15.7279 18.75 18.75 15.7279 18.75 12C18.75 8.27208 15.7279 5.25 12 5.25ZM3.75 12C3.75 7.44365 7.44365 3.75 12 3.75C16.5563 3.75 20.25 7.44365 20.25 12C20.25 16.5563 16.5563 20.25 12 20.25C7.44365 20.25 3.75 16.5563 3.75 12Z" fill="#1EC6A7"/>
<path fill-rule="evenodd" clip-rule="evenodd" d="M12 6.75C12.4142 6.75 12.75 7.08579 12.75 7.5V11.5365L15.3354 12.8292C15.7059 13.0144 15.8561 13.4649 15.6708 13.8354C15.4856 14.2059 15.0351 14.3561 14.6646 14.1708L11.6646 12.6708C11.4105 12.5438 11.25 12.2841 11.25 12V7.5C11.25 7.08579 11.5858 6.75 12 6.75Z" fill="#1EC6A7"/>
</svg>
